<svg width="52" height="4" viewBox="0 0 52 4" fill="none" xmlns="http://www.w3.org/2000/svg">
<path d="M48 2C48 1.60444 48.1173 1.21776 48.3371 0.88886C48.5568 0.559962 48.8692 0.303617 49.2346 0.152242C49.6001 0.000866562 50.0022 -0.0387401 50.3902 0.0384303C50.7781 0.115601 51.1345 0.306082 51.4142 0.585787C51.6939 0.865492 51.8844 1.22186 51.9616 1.60982C52.0387 1.99778 51.9991 2.39992 51.8478 2.76537C51.6964 3.13082 51.44 3.44318 51.1111 3.66294C50.7822 3.8827 50.3956 4 50 4C49.4696 4 48.9609 3.78929 48.5858 3.41421C48.2107 3.03914 48 2.53043 48 2ZM32 2C32 1.60444 32.1173 1.21776 32.3371 0.88886C32.5568 0.559962 32.8692 0.303617 33.2346 0.152242C33.6001 0.000866562 34.0022 -0.0387401 34.3902 0.0384303C34.7781 0.115601 35.1345 0.306082 35.4142 0.585787C35.6939 0.865492 35.8844 1.22186 35.9616 1.60982C36.0387 1.99778 35.9991 2.39992 35.8478 2.76537C35.6964 3.13082 35.44 3.44318 35.1111 3.66294C34.7822 3.8827 34.3956 4 34 4C33.4696 4 32.9609 3.78929 32.5858 3.41421C32.2107 3.03914 32 2.53043 32 2ZM16 2C16 1.60444 16.1173 1.21776 16.3371 0.88886C16.5568 0.559962 16.8692 0.303617 17.2346 0.152242C17.6001 0.000866562 18.0022 -0.0387401 18.3902 0.0384303C18.7781 0.115601 19.1345 0.306082 19.4142 0.585787C19.6939 0.865492 19.8844 1.22186 19.9616 1.60982C20.0387 1.99778 19.9991 2.39992 19.8478 2.76537C19.6964 3.13082 19.44 3.44318 19.1111 3.66294C18.7822 3.8827 18.3956 4 18 4C17.4696 4 16.9609 3.78929 16.5858 3.41421C16.2107 3.03914 16 2.53043 16 2ZM0 2C0 1.60444 0.117298 1.21776 0.337061 0.88886C0.556824 0.559962 0.869181 0.303617 1.23463 0.152242C1.60009 0.000866562 2.00222 -0.0387401 2.39018 0.0384303C2.77814 0.115601 3.13451 0.306082 3.41421 0.585787C3.69392 0.865492 3.8844 1.22186 3.96157 1.60982C4.03874 1.99778 3.99913 2.39992 3.84776 2.76537C3.69638 3.13082 3.44004 3.44318 3.11114 3.66294C2.78224 3.8827 2.39556 4 2 4C1.46957 4 0.960859 3.78929 0.585786 3.41421C0.210714 3.03914 0 2.53043 0 2Z" fill="#D7D8DA"/>
</svg>
