<svg width="24" height="24" viewBox="0 0 24 24" fill="none" xmlns="http://www.w3.org/2000/svg">
<g clip-path="url(#clip0_173_1568)">
<path d="M3.49338 22.5662H1.79281L2.99532 21.3636C3.64369 20.7153 4.04858 19.872 4.15744 18.9571C2.46551 17.8468 1.2283 16.386 0.566022 14.7107C-0.0957876 13.0368 -0.178954 11.194 0.325539 9.38162C0.930855 7.20694 2.3506 5.2248 4.32316 3.80026C6.4667 2.25232 9.13517 1.43408 12.0401 1.43408C15.6996 1.43408 18.7841 2.48547 20.9601 4.47452C22.9204 6.26647 24 8.68356 24 11.2806C24 12.5423 23.7431 13.77 23.2364 14.9295C22.7121 16.1294 21.9444 17.1978 20.9545 18.1049C18.7756 20.1018 15.693 21.1573 12.0401 21.1573C10.684 21.1573 9.26895 20.9763 8.00559 20.6441C6.80975 21.8709 5.18929 22.5662 3.49338 22.5662ZM12.0401 2.84289C6.21523 2.84289 2.64105 6.31667 1.68273 9.75941C0.777154 13.0128 2.11209 16.087 5.25372 17.9828L5.60475 18.1947L5.59395 18.6045C5.57254 19.4157 5.37915 20.197 5.03301 20.9033C5.8759 20.6181 6.64074 20.1011 7.23967 19.3935L7.53749 19.0416L7.97915 19.1737C9.21857 19.5444 10.6608 19.7485 12.0401 19.7485C19.2894 19.7485 22.5912 15.359 22.5912 11.2806C22.5912 9.08399 21.6744 7.03615 20.0095 5.51436C18.0976 3.76669 15.3418 2.84289 12.0401 2.84289Z" fill="black"/>
</g>
<defs>
<clipPath id="clip0_173_1568">
<rect width="24" height="24" fill="white"/>
</clipPath>
</defs>
</svg>
