<svg width="25" height="22" viewBox="0 0 25 22" fill="none" xmlns="http://www.w3.org/2000/svg">
<path d="M8.04173 12.275C8.04173 11.7777 8.76371 11.7777 8.76371 12.275C8.76371 13.9391 8.9304 13.9867 9.20534 15.3687C9.30167 15.8536 8.59701 16.0076 8.50068 15.5217C8.21817 14.1 8.04173 14.0592 8.04173 12.275ZM20.9594 13.1155C20.9908 13.0974 21.0244 13.085 21.059 13.0782C21.4086 12.8731 21.729 12.6194 22.0105 12.3248C23.7045 10.552 23.7045 7.67686 22.0105 5.90399C20.81 4.64769 18.9926 4.22175 17.3766 4.87992C17.4989 5.33758 17.5617 5.8145 17.5617 6.29708C17.5617 6.79439 16.8397 6.79439 16.8397 6.29708C16.8397 3.79014 14.8978 1.75673 12.5013 1.75673C10.1048 1.75673 8.16296 3.78901 8.16296 6.29708C8.16296 6.79439 7.44098 6.79439 7.44098 6.29708C7.44098 5.8145 7.50485 5.33871 7.62608 4.87992C4.82151 3.73803 1.72144 5.89606 1.72144 9.11442C1.72144 10.3685 2.20745 11.5035 2.99221 12.3248C3.78563 13.1552 4.92867 13.6548 6.05981 13.6548C6.53499 13.6548 6.53499 14.4104 6.05981 14.4104C5.75781 14.4104 5.46231 14.3832 5.17438 14.3299C5.53591 15.1852 5.44823 16.6828 5.44823 17.8394H19.7406C19.7406 17.4747 19.7395 16.915 19.7341 16.616C19.719 15.7301 19.706 14.9496 19.9344 14.3084C19.6129 14.3752 19.2806 14.4104 18.9407 14.4104C18.4655 14.4104 18.4655 13.6548 18.9407 13.6548C19.5956 13.6548 20.2158 13.503 20.7722 13.2311C20.8306 13.1914 20.8934 13.1529 20.9594 13.1155ZM21.1326 13.8881C20.2537 14.5429 20.4626 16.0122 20.4626 17.2877V20.6228C20.4626 20.8312 20.3013 21 20.1021 21H5.08779C4.88862 21 4.72734 20.8312 4.72734 20.6228C4.72734 19.2917 4.72193 18.1985 4.73059 16.8403C4.73924 15.473 4.74466 14.5078 3.88413 13.8961C3.36131 13.6344 2.88721 13.2821 2.48238 12.8584C0.505872 10.7899 0.505872 7.43784 2.48238 5.3693C3.88737 3.8989 5.9862 3.41858 7.86854 4.16851C8.68577 2.22005 10.5118 1 12.5002 1C14.4897 1 16.3158 2.21892 17.132 4.16851C19.0143 3.41745 21.1131 3.89776 22.5181 5.3693C24.9969 7.96347 24.2522 12.3169 21.1326 13.8881ZM5.44823 18.5928V20.2444H19.7406V18.5928H5.44823ZM12.1398 12.2739C12.1398 11.7766 12.8618 11.7766 12.8618 12.2739V15.4446C12.8618 15.9419 12.1398 15.9419 12.1398 15.4446V12.2739ZM16.239 12.2739C16.239 11.7766 16.9609 11.7766 16.9609 12.2739C16.9609 14.0569 16.7856 14.1 16.502 15.5217C16.4056 16.0076 15.701 15.8536 15.7973 15.3687C16.0723 13.9867 16.239 13.938 16.239 12.2739Z" fill="black" stroke="black"/>
</svg>
