<svg width="40" height="40" viewBox="0 0 40 40" fill="none" xmlns="http://www.w3.org/2000/svg">
<rect width="40" height="40" rx="10" fill="#ED210B"/>
<path d="M13.8753 15.6642C13.2611 15.6628 12.664 15.4615 12.1743 15.0907C11.6847 14.7199 11.329 14.1998 11.1611 13.6089H9.77072C9.56631 13.6089 9.37028 13.5277 9.22574 13.3832C9.0812 13.2386 9 13.0426 9 12.8382C9 12.6338 9.0812 12.4377 9.22574 12.2932C9.37028 12.1487 9.56631 12.0675 9.77072 12.0675H11.1671C11.3304 11.4733 11.6843 10.9493 12.1744 10.5758C12.6645 10.2023 13.2636 10 13.8798 10C14.4959 10 15.0951 10.2023 15.5851 10.5758C16.0752 10.9493 16.4291 11.4733 16.5925 12.0675H29.7903C29.9947 12.0675 30.1907 12.1487 30.3353 12.2932C30.4798 12.4377 30.561 12.6338 30.561 12.8382C30.561 13.0426 30.4798 13.2386 30.3353 13.3832C30.1907 13.5277 29.9947 13.6089 29.7903 13.6089H16.588C16.42 14.1994 16.0645 14.7192 15.5752 15.0899C15.0859 15.4607 14.4892 15.6622 13.8753 15.6642ZM13.8753 11.5566C13.6214 11.5566 13.3732 11.6319 13.1621 11.773C12.951 11.914 12.7864 12.1145 12.6892 12.3491C12.5921 12.5837 12.5667 12.8418 12.6162 13.0909C12.6657 13.3399 12.788 13.5686 12.9675 13.7482C13.1471 13.9277 13.3758 14.05 13.6249 14.0995C13.8739 14.1491 14.132 14.1236 14.3666 14.0265C14.6012 13.9293 14.8017 13.7648 14.9428 13.5536C15.0838 13.3425 15.1591 13.0943 15.1591 12.8404C15.1591 12.5 15.0241 12.1736 14.7837 11.9326C14.5433 11.6917 14.2172 11.5559 13.8768 11.5551L13.8753 11.5566Z" fill="white"/>
<path d="M19.7835 23.0961C19.1256 23.0956 18.4885 22.8657 17.982 22.4459C17.4755 22.0261 17.1312 21.4429 17.0086 20.7966H9.77072C9.56631 20.7966 9.37028 20.7154 9.22574 20.5708C9.0812 20.4263 9 20.2302 9 20.0258C9 19.8214 9.0812 19.6254 9.22574 19.4808C9.37028 19.3363 9.56631 19.2551 9.77072 19.2551H17.1522C17.3555 18.7228 17.7156 18.2647 18.1849 17.9415C18.6543 17.6183 19.2107 17.4453 19.7805 17.4453C20.3503 17.4453 20.9067 17.6183 21.3761 17.9415C21.8454 18.2647 22.2055 18.7228 22.4088 19.2551H29.7903C29.9947 19.2551 30.1907 19.3363 30.3353 19.4808C30.4798 19.6254 30.561 19.8214 30.561 20.0258C30.561 20.2302 30.4798 20.4263 30.3353 20.5708C30.1907 20.7154 29.9947 20.7966 29.7903 20.7966H22.5584C22.4357 21.4429 22.0914 22.0261 21.5849 22.4459C21.0784 22.8657 20.4413 23.0956 19.7835 23.0961ZM19.7835 18.9989C19.5296 18.9989 19.2813 19.0742 19.0702 19.2153C18.8591 19.3564 18.6946 19.5569 18.5974 19.7915C18.5002 20.026 18.4748 20.2842 18.5243 20.5332C18.5739 20.7822 18.6961 21.011 18.8757 21.1905C19.0552 21.3701 19.284 21.4923 19.533 21.5419C19.782 21.5914 20.0402 21.566 20.2748 21.4688C20.5093 21.3716 20.7098 21.2071 20.8509 20.996C20.992 20.7849 21.0673 20.5367 21.0673 20.2827C21.0671 20.114 21.0336 19.9469 20.9689 19.791C20.9041 19.6351 20.8093 19.4936 20.6898 19.3743C20.5703 19.2551 20.4285 19.1606 20.2725 19.0962C20.1165 19.0318 19.9493 18.9987 19.7805 18.9989H19.7835Z" fill="white"/>
<path d="M25.6812 30.0377C25.0673 30.036 24.4705 29.8346 23.9811 29.4638C23.4918 29.093 23.1363 28.573 22.9685 27.9824H9.77072C9.56631 27.9824 9.37028 27.9012 9.22574 27.7567C9.0812 27.6122 9 27.4161 9 27.2117C9 27.0073 9.0812 26.8113 9.22574 26.6667C9.37028 26.5222 9.56631 26.441 9.77072 26.441H22.973C23.1363 25.8469 23.4902 25.3228 23.9803 24.9493C24.4704 24.5758 25.0695 24.3735 25.6857 24.3735C26.3018 24.3735 26.901 24.5758 27.391 24.9493C27.8811 25.3228 28.235 25.8469 28.3984 26.441H29.7888C29.9932 26.441 30.1892 26.5222 30.3338 26.6667C30.4783 26.8113 30.5595 27.0073 30.5595 27.2117C30.5595 27.4161 30.4783 27.6122 30.3338 27.7567C30.1892 27.9012 29.9932 27.9824 29.7888 27.9824H28.3984C28.2302 28.5736 27.874 29.094 27.3838 29.4648C26.8935 29.8356 26.2959 30.0367 25.6812 30.0377ZM25.6812 25.9301C25.4273 25.9301 25.1791 26.0054 24.968 26.1465C24.7569 26.2876 24.5923 26.4881 24.4952 26.7227C24.398 26.9572 24.3726 27.2154 24.4221 27.4644C24.4716 27.7134 24.5939 27.9422 24.7735 28.1217C24.953 28.3013 25.1817 28.4235 25.4308 28.4731C25.6798 28.5226 25.9379 28.4972 26.1725 28.4C26.4071 28.3028 26.6076 28.1383 26.7487 27.9272C26.8897 27.7161 26.965 27.4679 26.965 27.2139C26.965 26.8736 26.83 26.5471 26.5896 26.3062C26.3492 26.0652 26.0231 25.9294 25.6827 25.9287L25.6812 25.9301Z" fill="white"/>
</svg>
