<svg width="22" height="21" viewBox="0 0 22 21" fill="none" xmlns="http://www.w3.org/2000/svg">
<path d="M4.87532 5.66417C4.2611 5.66279 3.66401 5.46149 3.17433 5.09069C2.68466 4.71989 2.329 4.19975 2.16113 3.60891H0.770723C0.566315 3.60891 0.370278 3.52771 0.22574 3.38317C0.081201 3.23863 0 3.04259 0 2.83818C0 2.63378 0.081201 2.43774 0.22574 2.2932C0.370278 2.14866 0.566315 2.06746 0.770723 2.06746H2.16706C2.33043 1.47334 2.68433 0.949284 3.17439 0.575785C3.66446 0.202285 4.26359 0 4.87977 0C5.49594 0 6.09507 0.202285 6.58514 0.575785C7.07521 0.949284 7.4291 1.47334 7.59248 2.06746H20.7903C20.9947 2.06746 21.1907 2.14866 21.3353 2.2932C21.4798 2.43774 21.561 2.63378 21.561 2.83818C21.561 3.04259 21.4798 3.23863 21.3353 3.38317C21.1907 3.52771 20.9947 3.60891 20.7903 3.60891H7.58803C7.42002 4.19939 7.06453 4.71921 6.5752 5.08995C6.08587 5.46068 5.48924 5.66223 4.87532 5.66417ZM4.87532 1.55661C4.62141 1.55661 4.3732 1.6319 4.16208 1.77297C3.95096 1.91403 3.78642 2.11453 3.68925 2.34912C3.59208 2.5837 3.56666 2.84183 3.61619 3.09086C3.66573 3.33989 3.788 3.56865 3.96754 3.74819C4.14708 3.92773 4.37583 4.05 4.62487 4.09954C4.8739 4.14907 5.13203 4.12365 5.36661 4.02648C5.6012 3.92931 5.8017 3.76476 5.94276 3.55364C6.08383 3.34253 6.15912 3.09432 6.15912 2.8404C6.15912 2.50004 6.02412 2.17357 5.78372 1.93262C5.54332 1.69167 5.21717 1.55591 4.8768 1.55513L4.87532 1.55661Z" fill="#040404"/>
<path d="M10.7835 13.0961C10.1256 13.0956 9.48855 12.8657 8.98202 12.4459C8.4755 12.0261 8.13124 11.4429 8.00856 10.7966H0.770723C0.566315 10.7966 0.370278 10.7154 0.22574 10.5708C0.081201 10.4263 0 10.2302 0 10.0258C0 9.82142 0.081201 9.62539 0.22574 9.48085C0.370278 9.33631 0.566315 9.25511 0.770723 9.25511H8.15219C8.35547 8.72276 8.7156 8.26469 9.18493 7.94152C9.65426 7.61835 10.2107 7.44531 10.7805 7.44531C11.3503 7.44531 11.9067 7.61835 12.3761 7.94152C12.8454 8.26469 13.2055 8.72276 13.4088 9.25511H20.7903C20.9947 9.25511 21.1907 9.33631 21.3353 9.48085C21.4798 9.62539 21.561 9.82142 21.561 10.0258C21.561 10.2302 21.4798 10.4263 21.3353 10.5708C21.1907 10.7154 20.9947 10.7966 20.7903 10.7966H13.5584C13.4357 11.4429 13.0914 12.0261 12.5849 12.4459C12.0784 12.8657 11.4413 13.0956 10.7835 13.0961ZM10.7835 8.99894C10.5296 8.99894 10.2813 9.07424 10.0702 9.2153C9.8591 9.35637 9.69456 9.55687 9.59739 9.79145C9.50022 10.026 9.4748 10.2842 9.52433 10.5332C9.57387 10.7822 9.69614 11.011 9.87568 11.1905C10.0552 11.3701 10.284 11.4923 10.533 11.5419C10.782 11.5914 11.0402 11.566 11.2748 11.4688C11.5093 11.3716 11.7098 11.2071 11.8509 10.996C11.992 10.7849 12.0673 10.5367 12.0673 10.2827C12.0671 10.114 12.0336 9.94686 11.9689 9.791C11.9041 9.63514 11.8093 9.49356 11.6898 9.37434C11.5703 9.25513 11.4285 9.16062 11.2725 9.09621C11.1165 9.0318 10.9493 8.99875 10.7805 8.99894H10.7835Z" fill="#040404"/>
<path d="M16.6812 20.0377C16.0673 20.036 15.4705 19.8346 14.9811 19.4638C14.4918 19.093 14.1363 18.573 13.9685 17.9824H0.770723C0.566315 17.9824 0.370278 17.9012 0.22574 17.7567C0.081201 17.6122 0 17.4161 0 17.2117C0 17.0073 0.081201 16.8113 0.22574 16.6667C0.370278 16.5222 0.566315 16.441 0.770723 16.441H13.973C14.1363 15.8469 14.4902 15.3228 14.9803 14.9493C15.4704 14.5758 16.0695 14.3735 16.6857 14.3735C17.3018 14.3735 17.901 14.5758 18.391 14.9493C18.8811 15.3228 19.235 15.8469 19.3984 16.441H20.7888C20.9932 16.441 21.1892 16.5222 21.3338 16.6667C21.4783 16.8113 21.5595 17.0073 21.5595 17.2117C21.5595 17.4161 21.4783 17.6122 21.3338 17.7567C21.1892 17.9012 20.9932 17.9824 20.7888 17.9824H19.3984C19.2302 18.5736 18.874 19.094 18.3838 19.4648C17.8935 19.8356 17.2959 20.0367 16.6812 20.0377ZM16.6812 15.9301C16.4273 15.9301 16.1791 16.0054 15.968 16.1465C15.7569 16.2876 15.5923 16.4881 15.4952 16.7227C15.398 16.9572 15.3726 17.2154 15.4221 17.4644C15.4716 17.7134 15.5939 17.9422 15.7735 18.1217C15.953 18.3013 16.1817 18.4235 16.4308 18.4731C16.6798 18.5226 16.9379 18.4972 17.1725 18.4C17.4071 18.3028 17.6076 18.1383 17.7487 17.9272C17.8897 17.7161 17.965 17.4679 17.965 17.2139C17.965 16.8736 17.83 16.5471 17.5896 16.3062C17.3492 16.0652 17.0231 15.9294 16.6827 15.9287L16.6812 15.9301Z" fill="#040404"/>
</svg>
