<svg width="24" height="24" viewBox="0 0 24 24" fill="none" xmlns="http://www.w3.org/2000/svg">
<path opacity="0.1" d="M24 12C24 5.37258 18.6274 0 12 0C5.37258 0 0 5.37258 0 12C0 18.6274 5.37258 24 12 24C18.6274 24 24 18.6274 24 12Z" fill="#22A45D"/>
<path d="M18.4 18.8H5.6C5.17565 18.8 4.76869 18.6314 4.46863 18.3314C4.16857 18.0313 4 17.6243 4 17.2V7.6C4 7.17565 4.16857 6.76869 4.46863 6.46863C4.76869 6.16857 5.17565 6 5.6 6H18.4C18.8243 6 19.2313 6.16857 19.5314 6.46863C19.8314 6.76869 20 7.17565 20 7.6V17.2C20 17.6243 19.8314 18.0313 19.5314 18.3314C19.2313 18.6314 18.8243 18.8 18.4 18.8ZM5.6 12.4V17.2H18.4V12.4H5.6ZM5.6 7.6V10H18.4V7.6H5.6ZM10 15.6H7.6C7.49391 15.6 7.39217 15.5579 7.31716 15.4828C7.24214 15.4078 7.2 15.3061 7.2 15.2V14.4C7.2 14.2939 7.24214 14.1922 7.31716 14.1172C7.39217 14.0421 7.49391 14 7.6 14H10C10.1061 14 10.2078 14.0421 10.2828 14.1172C10.3579 14.1922 10.4 14.2939 10.4 14.4V15.2C10.4 15.3061 10.3579 15.4078 10.2828 15.4828C10.2078 15.5579 10.1061 15.6 10 15.6Z" fill="#22A45D"/>
</svg>
