<svg width="24" height="24" viewBox="0 0 24 24" fill="none" xmlns="http://www.w3.org/2000/svg">
<path opacity="0.7" d="M24 21.8863L19.0183 16.9063C20.4062 15.0846 21.1496 12.8536 21.132 10.5635C21.1402 9.17391 20.8725 7.79647 20.3445 6.51106C19.8164 5.22564 19.0385 4.05782 18.0557 3.07526C17.073 2.09271 15.9051 1.31497 14.6196 0.787111C13.3341 0.259256 11.9566 -0.0082141 10.567 0.000203324C9.17691 -0.00844642 7.79896 0.258966 6.51303 0.786932C5.22711 1.3149 4.0588 2.09291 3.07585 3.07585C2.09291 4.0588 1.3149 5.22711 0.786932 6.51303C0.258966 7.79896 -0.00844642 9.17691 0.000203324 10.567C-0.00844642 11.957 0.258966 13.335 0.786932 14.6209C1.3149 15.9068 2.09291 17.0751 3.07585 18.0581C4.0588 19.041 5.22711 19.819 6.51303 20.347C7.79896 20.875 9.17691 21.1424 10.567 21.1337C12.857 21.1514 15.0881 20.4079 16.9098 19.02L21.8863 24L24 21.8863ZM3.01903 10.567C3.00988 9.57389 3.19873 8.58894 3.57455 7.66967C3.95037 6.75041 4.50562 5.91525 5.20787 5.21301C5.91011 4.51077 6.74526 3.95551 7.66453 3.57969C8.5838 3.20387 9.56875 3.01502 10.5618 3.02418C11.5549 3.01502 12.5399 3.20387 13.4591 3.57969C14.3784 3.95551 15.2135 4.51077 15.9158 5.21301C16.618 5.91525 17.1733 6.75041 17.5491 7.66967C17.9249 8.58894 18.1138 9.57389 18.1046 10.567C18.1138 11.5601 17.9249 12.545 17.5491 13.4643C17.1733 14.3835 16.618 15.2187 15.9158 15.9209C15.2135 16.6232 14.3784 17.1784 13.4591 17.5542C12.5399 17.9301 11.5549 18.1189 10.5618 18.1098C9.56875 18.1189 8.5838 17.9301 7.66453 17.5542C6.74526 17.1784 5.91011 16.6232 5.20787 15.9209C4.50562 15.2187 3.95037 14.3835 3.57455 13.4643C3.19873 12.545 3.00988 11.5601 3.01903 10.567Z" fill="#22A45D"/>
</svg>
